<svg width="24" height="25" viewBox="0 0 24 25" fill="none" xmlns="http://www.w3.org/2000/svg">
<path d="M18.8791 4.56396H9.61909C9.20909 4.56396 8.87909 4.22396 8.87909 3.81396C8.87909 3.40396 9.21909 3.06396 9.62909 3.06396H18.8791C19.2891 3.06396 19.6291 3.40396 19.6291 3.81396C19.6291 4.22396 19.2891 4.56396 18.8791 4.56396ZM14.3811 22.564H5.12109C4.71109 22.564 4.37109 22.224 4.37109 21.814C4.37109 21.404 4.71109 21.064 5.12109 21.064H14.3711C14.7811 21.064 15.1211 21.404 15.1211 21.814C15.1211 22.224 14.7911 22.564 14.3811 22.564Z" fill="black"/>
<path d="M9.7479 22.5619C9.6879 22.5619 9.6279 22.5519 9.5679 22.5419C9.1679 22.4419 8.9179 22.0319 9.0179 21.6319L13.5179 3.63192C13.5415 3.53606 13.5838 3.44579 13.6424 3.36627C13.7009 3.28674 13.7745 3.21953 13.859 3.16846C13.9435 3.11738 14.0372 3.08346 14.1348 3.06861C14.2325 3.05376 14.332 3.05828 14.4279 3.08192C14.5238 3.10556 14.614 3.14785 14.6936 3.20637C14.7731 3.2649 14.8403 3.33851 14.8914 3.42301C14.9424 3.50752 14.9764 3.60125 14.9912 3.69886C15.0061 3.79648 15.0015 3.89606 14.9779 3.99192L10.4779 21.9919C10.3879 22.3319 10.0879 22.5619 9.7479 22.5619Z" fill="black"/>
</svg>
