<svg width="25" height="25" viewBox="0 0 25 25" fill="none" xmlns="http://www.w3.org/2000/svg">
<path d="M19.8125 22.564H5.8125C5.4025 22.564 5.0625 22.224 5.0625 21.814C5.0625 21.404 5.4025 21.064 5.8125 21.064H19.8125C20.2225 21.064 20.5625 21.404 20.5625 21.814C20.5625 22.224 20.2225 22.564 19.8125 22.564ZM12.8125 18.564C8.5425 18.564 5.0625 15.084 5.0625 10.814V3.81396C5.0625 3.40396 5.4025 3.06396 5.8125 3.06396C6.2225 3.06396 6.5625 3.40396 6.5625 3.81396V10.814C6.5625 14.264 9.3625 17.064 12.8125 17.064C16.2625 17.064 19.0625 14.264 19.0625 10.814V3.81396C19.0625 3.40396 19.4025 3.06396 19.8125 3.06396C20.2225 3.06396 20.5625 3.40396 20.5625 3.81396V10.814C20.5625 15.084 17.0825 18.564 12.8125 18.564Z" fill="black"/>
</svg>
