<svg width="24" height="24" viewBox="0 0 24 24" fill="none" xmlns="http://www.w3.org/2000/svg">
<path d="M12 19.25C8 19.25 4.75 16 4.75 12C4.75 8 8 4.75 12 4.75C16 4.75 19.25 8 19.25 12C19.25 16 16 19.25 12 19.25ZM12 6.25C8.83 6.25 6.25 8.83 6.25 12C6.25 15.17 8.83 17.75 12 17.75C15.17 17.75 17.75 15.17 17.75 12C17.75 8.83 15.17 6.25 12 6.25ZM12 22.96C11.45 22.96 11 22.55 11 22V21.92C11 21.37 11.45 20.92 12 20.92C12.55 20.92 13 21.37 13 21.92C13 22.47 12.55 22.96 12 22.96ZM19.14 20.14C18.88 20.14 18.63 20.04 18.43 19.85L18.3 19.72C18.2074 19.6274 18.134 19.5175 18.0839 19.3965C18.0338 19.2756 18.008 19.1459 18.008 19.015C18.008 18.8841 18.0338 18.7544 18.0839 18.6335C18.134 18.5125 18.2074 18.4026 18.3 18.31C18.3926 18.2174 18.5025 18.144 18.6235 18.0939C18.7444 18.0438 18.8741 18.018 19.005 18.018C19.1359 18.018 19.2656 18.0438 19.3865 18.0939C19.5075 18.144 19.6174 18.2174 19.71 18.31L19.84 18.44C19.9789 18.5791 20.0736 18.7561 20.1122 18.9489C20.1507 19.1416 20.1313 19.3415 20.0564 19.5232C19.9816 19.705 19.8546 19.8606 19.6916 19.9703C19.5285 20.0801 19.3366 20.1391 19.14 20.14ZM4.86 20.14C4.6 20.14 4.35 20.04 4.15 19.85C4.0573 19.7575 3.98375 19.6476 3.93357 19.5266C3.88339 19.4057 3.85756 19.276 3.85756 19.145C3.85756 19.014 3.88339 18.8843 3.93357 18.7634C3.98375 18.6424 4.0573 18.5325 4.15 18.44L4.28 18.31C4.37258 18.2174 4.48249 18.144 4.60346 18.0939C4.72442 18.0438 4.85407 18.018 4.985 18.018C5.11593 18.018 5.24558 18.0438 5.36654 18.0939C5.48751 18.144 5.59742 18.2174 5.69 18.31C5.78258 18.4026 5.85602 18.5125 5.90613 18.6335C5.95623 18.7544 5.98202 18.8841 5.98202 19.015C5.98202 19.1459 5.95623 19.2756 5.90613 19.3965C5.85602 19.5175 5.78258 19.6274 5.69 19.72L5.56 19.85C5.37 20.04 5.11 20.14 4.86 20.14ZM22 13H21.92C21.37 13 20.92 12.55 20.92 12C20.92 11.45 21.37 11 21.92 11C22.47 11 22.96 11.45 22.96 12C22.96 12.55 22.55 13 22 13ZM2.08 13H2C1.45 13 1 12.55 1 12C1 11.45 1.45 11 2 11C2.55 11 3.04 11.45 3.04 12C3.04 12.55 2.63 13 2.08 13ZM19.01 5.99C18.75 5.99 18.5 5.89 18.3 5.7C18.2073 5.60749 18.1337 5.4976 18.0836 5.37662C18.0334 5.25565 18.0076 5.12597 18.0076 4.995C18.0076 4.86403 18.0334 4.73435 18.0836 4.61338C18.1337 4.4924 18.2073 4.38251 18.3 4.29L18.43 4.16C18.5226 4.06742 18.6325 3.99398 18.7535 3.94387C18.8744 3.89377 19.0041 3.86798 19.135 3.86798C19.2659 3.86798 19.3956 3.89377 19.5165 3.94387C19.6375 3.99398 19.7474 4.06742 19.84 4.16C19.9326 4.25258 20.006 4.36249 20.0561 4.48346C20.1062 4.60442 20.132 4.73407 20.132 4.865C20.132 4.99593 20.1062 5.12558 20.0561 5.24654C20.006 5.36751 19.9326 5.47742 19.84 5.57L19.71 5.7C19.52 5.89 19.27 5.99 19.01 5.99ZM4.99 5.99C4.73 5.99 4.48 5.89 4.28 5.7L4.15 5.56C4.05742 5.46742 3.98398 5.35751 3.93387 5.23654C3.88377 5.11558 3.85798 4.98593 3.85798 4.855C3.85798 4.72407 3.88377 4.59442 3.93387 4.47346C3.98398 4.35249 4.05742 4.24258 4.15 4.15C4.24258 4.05742 4.35249 3.98398 4.47346 3.93387C4.59442 3.88377 4.72407 3.85798 4.855 3.85798C4.98593 3.85798 5.11558 3.88377 5.23654 3.93387C5.35751 3.98398 5.46742 4.05742 5.56 4.15L5.69 4.28C6.08 4.67 6.08 5.3 5.69 5.69C5.5 5.89 5.24 5.99 4.99 5.99ZM12 3.04C11.45 3.04 11 2.63 11 2.08V2C11 1.45 11.45 1 12 1C12.55 1 13 1.45 13 2C13 2.55 12.55 3.04 12 3.04Z" fill="white"/>
</svg>
