<svg xmlns="http://www.w3.org/2000/svg" width="32" height="32" viewBox="32 32">
	<path style="stroke:none;fill-rule:nonzero;fill:#32333e;fill-opacity:1"
		d="M3.273 31.477c-.355-.114-.812-.438-1.023-.739-.406-.558-.375.364-.363-12.707l.02-11.875.136-.258c.207-.386.445-.64.812-.878.293-.188.333-.23.333-.426 0-.114.03-.29.062-.375.05-.125.023-.313-.102-.801-.117-.48-.156-.738-.128-1.031C3.117 1.094 4.45.164 5.695.52c.75.218 1.254.738 1.504 1.523.133.426.153.457.32.457.098 0 4.106-.426 8.907-.945 4.8-.516 8.93-.942 9.18-.942.792-.011 1.468.426 1.808 1.168.137.293.266 1.438 1.43 12.258.707 6.566 1.281 12.074 1.281 12.23 0 .645-.477 1.399-1.055 1.7-.343.168-.746.25-1.828.351l-.793.075-.023.816c-.02.664-.051.875-.156 1.113-.188.414-.653.883-1.04 1.059l-.324.148-10.687.012c-8.582.008-10.739-.004-10.946-.066zM24.82 30.28c.14-.101.313-.289.375-.406.11-.207.117-.637.117-11.707 0-10.461-.007-11.512-.101-11.707a1.145 1.145 0 0 0-.703-.586c-.164-.043-3.156-.055-9.051-.05l-8.809.019.739 2.75c.758 2.824.82 3.148.668 3.68-.035.14-.18.351-.336.507-.211.219-.336.281-.633.344-.75.164-1.441-.094-1.719-.633-.062-.11-.492-1.629-.953-3.36-.469-1.734-.86-3.163-.875-3.175-.062-.062-.477.438-.531.648-.102.356-.09 22.856.012 23.114.148.386.425.625.812.718.106.032 4.816.043 10.461.043l10.258-.011zm2.785-3.117c.778-.094 1.051-.215 1.262-.562a.906.906 0 0 0 .133-.438c0-.402-2.5-23.562-2.563-23.766-.074-.222-.398-.554-.636-.64-.133-.051-2.09.14-8.281.804L7.28 3.665c-1.738.18-2.176.25-2.406.356-.227.105-.281.168-.281.293 0 .117.039.164.156.175.133.012.168-.02.219-.187.074-.246.273-.364.644-.364.348 0 .5.086.614.352l.085.211 9.364.012c8.918.02 9.367.027 9.648.133.395.156.856.574 1.082.992l.188.332.02 10.644.011 10.637h.145c.074-.008.449-.043.835-.086zM5.992 8.774c-.703-2.657-.844-3.067-.972-2.942-.04.043 1.457 5.68 1.554 5.879.043.082.082.094.125.05.051-.05-.16-.929-.707-2.988zM4.156 3.07c.063-.113.625-.257 1.25-.32 1.094-.117 1.043-.102.992-.332-.14-.676-.648-1.106-1.293-1.106-.55 0-1.125.481-1.207 1.012-.078.48.102.996.258.746zm0 0" />
	<path style="stroke:none;fill-rule:nonzero;fill:#32333e;fill-opacity:1"
		d="M4.32 27.273c-.175-.222-.183-.761-.015-.968.12-.149.125-.149 1.738-.168 1.57-.02 1.625-.012 1.789.113.148.117.168.176.168.54 0 .667.055.648-1.898.648H4.445zM9.313 27.313c-.102-.102-.126-.208-.126-.524 0-.363.02-.422.165-.531.16-.133.218-.133 3.71-.133 3.493 0 3.551 0 3.711.133.145.11.165.168.165.523 0 .332-.024.426-.137.532-.133.125-.2.125-3.75.125-3.531 0-3.614 0-3.739-.125zM18.383 27.273c-.176-.222-.184-.761-.016-.968l.121-.149 2.617-.02c2.582-.019 2.625-.011 2.79.114.148.117.168.176.168.54 0 .69.199.648-2.899.648h-2.656zM4.32 24.836c-.133-.168-.172-.523-.093-.824.078-.301.25-.325 2.265-.325 1.988 0 2.125.02 2.25.293.113.25.09.668-.062.856L8.555 25h-4.11zM10.074 24.855c-.105-.113-.136-.222-.136-.5 0-.386.113-.566.386-.636.082-.02 1.903-.024 4.04-.02l3.898.02.12.148c.18.227.169.813-.027.996l-.144.137h-8.004zM19.938 24.875c-.176-.176-.176-.793-.008-1.008l.12-.148h1.876c2.219 0 2.137-.024 2.137.636 0 .668.085.645-2.125.645-1.793 0-1.883-.008-2-.125zM4.32 22.398c-.144-.18-.175-.585-.07-.859.105-.277.32-.297 3.23-.277l2.7.02.144.144c.196.187.207.804.028 1.004-.122.133-.153.133-3.016.133h-2.89zM11.75 22.438c-.176-.176-.176-.793-.008-1.008.121-.149.133-.149 1.61-.168 1.648-.024 1.843-.004 2.023.187.176.196.176.719-.008.95l-.125.163h-1.687c-1.598 0-1.688-.007-1.805-.125zM16.938 22.438c-.102-.102-.125-.208-.125-.52 0-.688-.29-.637 3.625-.637 3.925 0 3.625-.054 3.625.657 0 .68.304.625-3.614.625-3.304 0-3.387 0-3.512-.125zM4.492 20.117c-.316-.117-.422-.762-.172-1.078l.125-.164H5.72c1.23 0 1.281.008 1.406.137.094.101.125.218.125.476 0 .41-.07.543-.32.63-.242.081-2.203.081-2.438 0zM8.71 20.125c-.343-.137-.46-.762-.202-1.086l.125-.164h4.031c3.941 0 4.024 0 4.149.125.175.176.175.793.007 1.008l-.12.148-3.93.012c-2.157.008-3.989-.012-4.06-.043zM18.555 20.117c-.317-.117-.422-.762-.172-1.078l.125-.164h2.64c3.102 0 2.915-.04 2.915.617 0 .707.187.664-2.805.676-1.52.008-2.602-.012-2.703-.05zM4.45 17.688c-.282-.118-.364-.79-.13-1.086l.125-.165h4.11l.125.165c.246.304.152.937-.16 1.078-.188.09-3.856.09-4.07.008zM10.207 17.688c-.195-.075-.27-.258-.27-.614 0-.219.04-.355.133-.472l.125-.165h8.035l.133.145c.188.191.192.773.02.988l-.121.149-3.961.011c-2.207.008-4.02-.011-4.094-.043zM20.082 17.688c-.195-.083-.27-.258-.27-.649 0-.27.032-.383.125-.477.118-.117.208-.125 2-.125 2.211 0 2.125-.023 2.125.645 0 .656.07.637-2.054.648-.985.008-1.852-.011-1.926-.043zM20.395 13.125c-.196-.082-.27-.258-.27-.648 0-.27.031-.383.125-.477.117-.117.207-.125 2.082-.125 2.254 0 2.168-.023 2.219.582.023.285.004.355-.133.52l-.156.18-1.867.011c-1.028.008-1.926-.012-2-.043zM12.68 10.57l-.18-.183V9.176c0-1.395.063-1.719.387-2.031.37-.344.562-.407 1.207-.383.719.027.992.176 1.25.695l.164.336-.02 1.352c-.027 1.605-.008 1.574-.652 1.574-.629 0-.649-.04-.649-1.375 0-.914-.011-1.094-.101-1.164-.086-.067-.11-.063-.188.039-.066.086-.085.375-.085 1.195v1.078l-.165.125c-.117.094-.253.133-.472.133-.258 0-.34-.031-.496-.18zM16.613 10.688a1.437 1.437 0 0 1-.789-.614c-.156-.273-.168-.344-.187-1.18-.032-1.113.058-1.457.425-1.792.336-.309.477-.352 1.07-.352.544 0 .805.082 1.075.332.156.148.168.148.168.043 0-.07.055-.18.125-.25.117-.117.207-.125 1.398-.125h1.282l.125.164c.093.117.133.254.133.469 0 .41-.18.617-.583.66l-.293.039v1.113c0 .692-.023 1.168-.07 1.266-.097.207-.367.312-.722.27-.5-.055-.52-.114-.52-1.489v-1.18h-.21c-.122 0-.259-.019-.313-.039-.09-.03-.102.059-.102.758 0 .961-.07 1.23-.406 1.57-.356.356-1.055.504-1.606.336zm.7-1.977c0-.336-.024-.469-.102-.531-.086-.067-.11-.063-.188.039-.125.168-.109.836.02 1.023.094.145.105.145.187.04.051-.075.082-.29.082-.571zM22 10.605c-.469-.242-.5-.367-.5-1.886 0-1.2.012-1.332.125-1.52.25-.406.406-.449 1.602-.449 1.234 0 1.265.012 1.324.563.031.351-.082.593-.32.68-.137.058-.137.058.03.132.22.105.325.367.282.73-.05.457-.16.52-1.035.532l-.727.011.762.032c.906.047.965.078 1.008.593.023.32.012.36-.164.54l-.188.187h-.969c-.878 0-.98-.012-1.23-.145zm0 0" />
	<path style="stroke:none;fill-rule:nonzero;fill:#f1734d;fill-opacity:1"
		d="m26.813 24.293-.344-3.137-.063-15-.187-.332c-.25-.457-.7-.847-1.145-1l-.355-.117-.137-1.246c-.184-1.66-.184-1.813-.008-1.856.371-.085 1.176-.117 1.383-.05.27.09.637.488.691.734.02.098.614 5.543 1.32 12.094.93 8.691 1.262 11.969 1.22 12.11-.149.527-.555.78-1.344.85-.274.02-.543.052-.594.071-.082.016-.145-.457-.438-3.121zm0 0" />
	<path style="stroke:none;fill-rule:nonzero;fill:#f7be75;fill-opacity:1"
		d="M22.688 30.602c0-.059.023-.153.054-.215.29-.543.32-.723.32-1.942V27.25h.282c.351 0 .531-.156.531-.46 0-.282-.23-.477-.57-.477h-.242v-.625c0-.583-.008-.625-.125-.625-.083 0-.125-.043-.125-.125 0-.114.042-.125.406-.125.48 0 .656-.125.656-.458 0-.273-.168-.425-.531-.46l-.282-.04v-.613c0-.574-.007-.617-.125-.617-.082 0-.125-.043-.125-.125 0-.113.043-.125.426-.125.5 0 .637-.094.637-.45 0-.32-.2-.456-.7-.48-.1-.008-.113-.082-.113-.718v-.707l.282-.04c.375-.035.531-.18.531-.488 0-.324-.164-.43-.668-.43-.352 0-.395-.011-.395-.125 0-.082.043-.125.125-.125.118 0 .125-.042.125-.617v-.613l.282-.039c.363-.035.531-.188.531-.461 0-.332-.176-.457-.656-.457-.364 0-.407-.012-.407-.125 0-.082.043-.125.125-.125.125 0 .125-.043.125-1.68v-1.683l.508-.024c.47-.02.516-.031.66-.199.114-.14.145-.219.114-.344-.086-.34-.18-.383-.887-.383-.602 0-.645-.007-.645-.124 0-.083.043-.126.125-.126.118 0 .125-.042.125-.624v-.626h.477c.441 0 .48-.011.66-.187.153-.156.184-.227.153-.363-.082-.317-.239-.387-.922-.387-.575 0-.617-.008-.617-.125 0-.082.042-.125.125-.125.07 0 .125-.043.125-.094 0-.074.093-.094.476-.094.254 0 .523-.03.594-.07.297-.156.273-.656-.047-.797-.086-.039-.348-.07-.586-.07h-.438v-.363l.508-.024c.47-.02.516-.031.66-.199.114-.14.145-.219.114-.344-.086-.34-.18-.383-.887-.383-.602 0-.645-.007-.645-.125 0-.085.043-.125.133-.125.106 0 .125-.023.094-.136a3.32 3.32 0 0 1-.078-.313c-.023-.101-.063-.176-.094-.176s-.055-.042-.055-.093-.023-.094-.062-.094c-.031 0-.063-.055-.063-.133 0-.125.02-.129 1.02-.105 1.137.027 1.281.062 1.586.468l.176.227.02 11.754c.011 11.363.011 11.766-.102 11.977-.067.117-.239.3-.38.406-.265.18-.269.18-1.288.207-.926.023-1.032.02-1.032-.074zM26.445 23.332c.004-2.3.016-4.133.032-4.082.043.168.835 7.664.835 7.898 0 .258-.007.266-.511.313l-.363.039zM15.387 4.688l-9.262-.032-.113-.218c-.207-.415-.723-.383-.856.05-.054.207-.062.207-.406.188l-.344-.02-.054-.27c-.114-.55.14-.636 2.492-.886 1-.105 5.336-.57 9.648-1.031 4.309-.461 7.895-.844 7.969-.844.14 0 .144.043.281 1.395.082.761.156 1.46.176 1.562.031.148.02.168-.113.156-.078-.011-4.317-.031-9.418-.05zm0 0" />
	<path style="stroke:none;fill-rule:nonzero;fill:#feeabb;fill-opacity:1"
		d="M3.645 30.625c-.418-.102-.72-.383-.833-.781-.05-.18-.062-3.52-.05-11.852l.02-11.594.167-.253c.156-.23.489-.457.688-.457.062 0 .308.812.863 2.894 1.043 3.91.98 3.711 1.29 4.02.772.78 2.147.199 2.147-.907 0-.09-.351-1.468-.78-3.07-.43-1.605-.782-2.938-.782-2.96 0-.052 16.395-.052 16.523 0 .059.015.102.062.102.097 0 .031.043.101.094.156.05.05.082.121.062.152-.023.032-.008.055.032.055.042 0 .062.043.039.094-.02.05-.008.093.023.093s.05.133.043.293l-.012.301-.468.02c-.54.023-.77.129-.981.449-.137.195-.145.27-.145 1.336 0 .988.012 1.164.118 1.351.172.313.558.5 1.047.5h.39l.02.739.02.742-1.345.012c-.738.008-1.386.047-1.449.078-.144.074-.207.344-.136.547.097.289.265.32 1.628.32h1.262l.02 1.8.02 1.805-1.493.012c-.828.008-1.55.047-1.613.078-.145.075-.207.344-.137.547.106.29.254.32 1.785.32h1.418l.02.743.02.746-2.282.004-2.281.008-.137.164c-.082.085-.145.191-.145.242 0 .187.149.406.333.468.117.04.992.063 2.332.063h2.148v1.43l-2.992.02c-2.844.019-3 .027-3.125.136-.172.156-.176.496-.008.664.117.117.21.125 3.02.137 1.585 0 2.93.008 2.98.011.074.008.102.141.113.739l.02.73-1.516.02c-1.492.02-1.504.02-1.625.168-.156.187-.148.476.008.633.117.117.21.125 1.52.136.761 0 1.43.008 1.48.012.074.008.102.14.113.738l.02.73-2.297.02-2.285.02-.121.148c-.157.188-.149.39.015.594l.125.164h4.547l.02 1.3c.011.712 0 1.302-.024 1.313-.027.012-.027.063-.008.114.02.046 0 .085-.043.085-.039 0-.05.032-.03.063.019.04.007.063-.032.063-.04 0-.05.03-.031.062.02.04.008.063-.032.063-.039 0-.054.023-.039.05.02.032-.011.114-.062.188l-.094.137-9.512-.008c-5.23-.004-9.605-.024-9.71-.055zm4.042-3.5a.471.471 0 0 0-.042-.688c-.165-.125-.22-.132-1.602-.113-1.418.02-1.43.02-1.55.168-.157.188-.15.39.015.594l.125.164h1.469c1.378 0 1.468-.008 1.585-.125zm8.926 0a.45.45 0 0 0-.027-.68c-.16-.133-.223-.133-3.523-.133-3.301 0-3.364 0-3.524.133a.465.465 0 0 0-.039.68c.125.125.207.125 3.55.125 3.364 0 3.43 0 3.563-.125zm-8.12-2.477c.152-.187.163-.265.062-.48-.125-.273-.274-.293-2.063-.293-1.816 0-2 .031-2.078.324-.059.227-.05.27.094.45l.125.163h3.734zm9.675.028c.176-.164.187-.418.027-.621l-.12-.149-3.712-.02c-2.039-.003-3.77 0-3.851.02-.367.086-.5.492-.25.762l.133.145h7.628zm-8.012-2.426a.488.488 0 0 0-.023-.645c-.133-.136-.156-.136-2.653-.156-2.718-.02-2.94 0-3.043.278-.085.222-.082.296.07.484l.126.164h2.703c2.633 0 2.707-.008 2.82-.125zm5.024-.04c.164-.21.172-.398.008-.573-.18-.188-.387-.211-1.836-.188-1.278.02-1.301.02-1.422.168-.157.188-.149.477.008.633.117.117.207.125 1.617.125h1.5zm-8.438-2.28c.332-.117.426-.48.196-.73-.125-.13-.18-.137-1.22-.137H4.634l-.125.164c-.078.093-.133.203-.133.25 0 .171.148.398.305.453.234.082 1.82.082 2.062 0zm9.89-.11c.157-.187.15-.476-.007-.633-.125-.125-.207-.125-3.96-.125H8.82l-.125.165c-.078.093-.133.21-.133.265 0 .145.176.383.336.445.07.032 1.813.051 3.872.043l3.742-.011zm-8.3-2.328a.586.586 0 0 0 .293-.453c0-.047-.055-.156-.133-.25l-.129-.164-1.875.012-1.883.02-.125.167c-.105.137-.113.207-.066.375a.485.485 0 0 0 .211.281c.207.106 3.48.114 3.707.012zm9.863-.11a.448.448 0 0 0-.02-.612l-.132-.145h-7.66l-.125.164c-.207.262-.145.598.137.711.074.031 1.804.05 3.906.043l3.773-.012zm-4.734-6.952.164-.125V9.227c0-.872.02-1.102.102-1.215.109-.16.375-.18.535-.032.101.09.113.215.113 1.176s.012 1.094.117 1.227c.145.172.52.199.684.035.094-.094.105-.27.125-1.27.02-1.148.02-1.168-.145-1.503-.226-.457-.539-.665-1.062-.696-.438-.031-.68.063-1.02.383-.312.3-.386.648-.386 1.844v1.023l.18.184c.218.21.37.222.593.047zm4.027.058c.364-.09.762-.476.875-.84.035-.14.075-.578.075-.972 0-.637-.02-.746-.157-1.031-.207-.407-.55-.653-.968-.696-.47-.043-.708.028-1.024.309-.394.347-.496.703-.469 1.64.024.622.043.727.192.989.175.289.465.511.789.613.242.074.355.074.687-.012zm2.594.004c.254-.117.293-.297.293-1.484V7.895l.293-.04c.219-.023.332-.074.437-.199.176-.199.184-.343.012-.554l-.125-.165h-1.094c-1.003 0-1.097.012-1.21.125-.157.157-.165.446-.012.625.082.102.199.149.437.176l.325.032v1.148c0 1.2.03 1.355.269 1.457.188.074.2.074.375-.008zm0 0" />
	<path style="stroke:none;fill-rule:nonzero;fill:#feeabb;fill-opacity:1"
		d="M16.906 9.469c-.144-.137-.156-.2-.156-.73 0-.669.082-.864.367-.864.313 0 .383.156.383.863 0 .555-.02.657-.125.762-.164.164-.29.156-.469-.031zM6.52 11.992c-.165-.055-.082.203-1.051-3.43L4.71 5.73c-.031-.097 0-.113.328-.093l.356.02.804 3c.59 2.179.793 3.042.758 3.148a.32.32 0 0 1-.437.187zM22.625 9.406v-.219h.305c.3 0 .308.008.332.208l.02.199-.325.02-.332.011zM22.625 8.063c0-.18.008-.188.313-.188.304 0 .312.008.312.188s-.008.187-.313.187c-.304 0-.312-.008-.312-.188zm0 0" />
</svg>
