<svg width="32" height="32" viewBox="0 0 32 32" fill="none" xmlns="http://www.w3.org/2000/svg">
<path d="M25.1192 24.9294L22.355 19.4139L19.5908 24.9294M20.0946 23.9477H24.6412" stroke="black" stroke-width="1.5" stroke-linecap="round" stroke-linejoin="round"/>
<path d="M12.1378 8.37026H6.89367M9.50284 7.49192V8.37026M22.3549 29.2307C21.4931 29.2305 20.6397 29.0606 19.8435 28.7306C19.0473 28.4006 18.3239 27.9171 17.7146 27.3075C17.1053 26.698 16.622 25.9744 16.2923 25.1781C15.9627 24.3817 15.7931 23.5283 15.7933 22.6664C15.7934 21.8046 15.9633 20.9512 16.2933 20.155C16.6233 19.3588 17.1069 18.6354 17.7164 18.0261C18.326 17.4168 19.0495 16.9335 19.8459 16.6038C20.6422 16.2742 21.4956 16.1046 22.3575 16.1048C24.0981 16.1051 25.7673 16.7969 26.9978 18.0279C28.2284 19.259 28.9195 20.9284 28.9192 22.669C28.9188 24.4096 28.227 26.0788 26.996 27.3093C25.765 28.5399 24.0955 29.231 22.3549 29.2307ZM6.98409 3.39734H12.0474C14.7212 3.39734 16.0128 4.68901 15.9483 7.29817V12.3615C16.0128 15.0353 14.7212 16.3269 12.0474 16.2623H6.98409C4.37492 16.314 3.08325 15.0223 3.08325 12.3486V7.28526C3.08325 4.68901 4.37492 3.39734 6.98409 3.39734Z" stroke="black" stroke-width="1.5" stroke-linecap="round" stroke-linejoin="round"/>
<path d="M10.8204 8.3573C10.8204 10.6177 9.05086 12.4519 6.88086 12.4519" stroke="black" stroke-width="1.5" stroke-linecap="round" stroke-linejoin="round"/>
<path d="M12.1378 12.4519C11.1949 12.4519 10.3424 11.9482 9.74825 11.1473M3.08325 20.189C3.08325 25.1878 7.12617 29.2307 12.1249 29.2307L10.7687 26.9703M28.9166 12.439C28.9166 7.44026 24.8737 3.39734 19.8749 3.39734L21.2312 5.65776" stroke="black" stroke-width="1.5" stroke-linecap="round" stroke-linejoin="round"/>
</svg>
