<svg width="24" height="25" viewBox="0 0 24 25" fill="none" xmlns="http://www.w3.org/2000/svg">
<path d="M11.9989 13.564H4.87891C4.46891 13.564 4.12891 13.224 4.12891 12.814V5.31396C4.12891 3.79396 5.35891 2.56396 6.87891 2.56396H11.9989C15.0289 2.56396 17.4989 5.03396 17.4989 8.06396C17.4989 11.094 15.0289 13.564 11.9989 13.564ZM5.61891 12.064H11.9989C14.2089 12.064 15.9989 10.274 15.9989 8.06396C15.9989 5.85396 14.2089 4.06396 11.9989 4.06396H6.87891C6.18891 4.06396 5.62891 4.62396 5.62891 5.31396V12.064H5.61891Z" fill="black"/>
<path d="M14.3789 23.064H6.87891C5.35891 23.064 4.12891 21.834 4.12891 20.314V12.814C4.12891 12.404 4.46891 12.064 4.87891 12.064H14.3789C17.4089 12.064 19.8789 14.534 19.8789 17.564C19.8789 20.594 17.4089 23.064 14.3789 23.064ZM5.61891 13.564V20.314C5.61891 21.004 6.17891 21.564 6.86891 21.564H14.3689C16.5789 21.564 18.3689 19.774 18.3689 17.564C18.3689 15.354 16.5789 13.564 14.3689 13.564H5.61891Z" fill="black"/>
</svg>
