<svg width="25" height="25" viewBox="0 0 25 25" fill="none" xmlns="http://www.w3.org/2000/svg">
<path d="M22.1446 8.73497C21.7346 8.73497 21.3946 8.39497 21.3946 7.98497V6.16497C21.3946 5.43497 20.8046 4.84497 20.0746 4.84497H5.55462C4.82462 4.84497 4.23462 5.43497 4.23462 6.16497V7.99497C4.23462 8.40497 3.89462 8.74497 3.48462 8.74497C3.07462 8.74497 2.73462 8.40497 2.73462 7.98497V6.16497C2.73462 4.60497 4.00462 3.34497 5.55462 3.34497H20.0746C21.6346 3.34497 22.8946 4.61497 22.8946 6.16497V7.99497C22.8946 8.40497 22.5646 8.73497 22.1446 8.73497Z" fill="black"/>
<path d="M12.8125 22.2839C12.4025 22.2839 12.0625 21.9439 12.0625 21.5339V4.92395C12.0625 4.51395 12.4025 4.17395 12.8125 4.17395C13.2225 4.17395 13.5625 4.51395 13.5625 4.92395V21.5339C13.5625 21.9539 13.2225 22.2839 12.8125 22.2839Z" fill="black"/>
<path d="M16.7516 22.283H8.87158C8.46158 22.283 8.12158 21.943 8.12158 21.533C8.12158 21.123 8.46158 20.783 8.87158 20.783H16.7516C17.1616 20.783 17.5016 21.123 17.5016 21.533C17.5016 21.943 17.1616 22.283 16.7516 22.283Z" fill="black"/>
<path d="M5.8125 13.814H19.8482" stroke="black" stroke-width="1.5" stroke-linecap="round"/>
</svg>
