<svg xmlns="http://www.w3.org/2000/svg" width="512" height="512" viewBox="0 0 5120 5120">
	<g fill="rgb(50,51,62)">
		<path
			d="M524 5036 c-57 -18 -130 -70 -164 -118 -65 -89 -60 58 -58 -2033 l3 -1900 22 -41 c33 -62 71 -103 130 -141 47 -30 53 -37 53 -68 0 -18 5 -46 10 -60 8 -20 4 -50 -16 -128 -19 -77 -25 -118 -21 -165 16 -207 229 -356 428 -299 120 35 201 118 241 244 21 68 24 73 51 73 16 0 657 -68 1425 -151 768 -83 1429 -151 1469 -151 127 -2 235 68 289 187 22 47 43 230 229 1961 113 1051 205 1932 205 1957 0 103 -76 224 -169 272 -55 27 -119 40 -292 56 l-127 12 -4 131 c-3 106 -8 140 -25 178 -30 66 -104 141 -166 169 l-52 24 -1710 2 c-1373 1 -1718 -1 -1751 -11z m3447 -191 c23 -16 50 -46 60 -65 18 -33 19 -102 19 -1873 0 -1674 -1 -1842 -16 -1873 -21 -44 -65 -81 -113 -94 -26 -7 -505 -9 -1448 -8 l-1409 3 118 440 c121 452 131 504 107 589 -6 22 -29 56 -54 81 -34 35 -54 45 -101 55 -120 26 -231 -15 -275 -101 -10 -18 -79 -261 -153 -538 -75 -277 -137 -506 -140 -508 -10 -10 -76 70 -85 104 -16 57 -14 3657 2 3698 24 62 68 100 130 115 17 5 771 7 1674 7 l1641 -2 43 -30z m446 -499 c124 -15 168 -34 202 -90 12 -18 21 -50 21 -70 0 -64 -400 -3770 -410 -3802 -12 -36 -64 -89 -102 -103 -21 -8 -334 23 -1325 129 -714 77 -1451 156 -1638 176 -278 29 -348 40 -385 57 -36 17 -45 27 -45 47 0 19 6 26 25 28 21 2 27 -3 35 -30 12 -39 44 -58 103 -58 56 0 80 14 98 56 l14 34 1498 2 c1427 3 1499 4 1544 21 63 25 137 92 173 159 l30 53 3 1703 2 1702 23 0 c12 -1 72 -7 134 -14z m-3458 -2942 c-113 -425 -135 -491 -156 -471 -6 7 233 909 249 941 7 13 13 15 20 8 8 -8 -26 -149 -113 -478z m-294 -913 c10 -18 100 -41 200 -51 175 -19 167 -16 159 -53 -23 -108 -104 -177 -207 -177 -88 0 -180 77 -193 162 -13 77 16 159 41 119z">
		</path>
		<path
			d="M691 4364 c-28 -36 -29 -122 -2 -155 19 -24 20 -24 278 -27 251 -3 260 -2 286 18 24 19 27 28 27 86 0 107 9 104 -304 104 l-265 0 -20 -26z">
		</path>
		<path
			d="M1490 4370 c-16 -16 -20 -33 -20 -84 0 -58 3 -67 26 -85 26 -21 35 -21 594 -21 559 0 568 0 594 21 23 18 26 27 26 84 0 53 -4 68 -22 85 -21 20 -32 20 -600 20 -565 0 -578 0 -598 -20z">
		</path>
		<path
			d="M2941 4364 c-28 -36 -29 -122 -2 -155 l19 -24 419 -3 c413 -3 420 -2 446 18 24 19 27 28 27 86 0 111 32 104 -464 104 l-425 0 -20 -26z">
		</path>
		<path
			d="M691 3974 c-21 -27 -27 -84 -15 -132 13 -48 40 -52 363 -52 318 0 340 3 360 47 18 40 14 107 -10 137 l-20 26 -329 0 -329 0 -20 -26z">
		</path>
		<path
			d="M1612 3977 c-17 -18 -22 -36 -22 -80 0 -62 18 -91 62 -102 13 -3 304 -4 646 -3 l624 3 19 24 c29 36 27 130 -4 159 l-23 22 -640 0 -641 0 -21 -23z">
		</path>
		<path
			d="M3190 3980 c-28 -28 -28 -127 -1 -161 l19 -24 300 0 c355 0 342 -4 342 102 0 107 14 103 -340 103 -287 0 -301 -1 -320 -20z">
		</path>
		<path
			d="M691 3584 c-23 -29 -28 -94 -11 -138 17 -44 51 -47 517 -44 l432 3 23 23 c31 30 33 129 4 161 -19 21 -24 21 -482 21 l-463 0 -20 -26z">
		</path>
		<path id="psUHzFzGr"
			d="M1880 3590 c-28 -28 -28 -127 -1 -161 19 -24 21 -24 257 -27 264 -4 295 -1 324 30 28 31 28 115 -1 152 l-20 26 -270 0 c-256 0 -270 -1 -289 -20z">
		</path>
		<path
			d="M2710 3590 c-16 -16 -20 -33 -20 -83 0 -110 -46 -102 580 -102 628 0 580 -9 580 105 0 109 49 100 -578 100 -529 0 -542 0 -562 -20z">
		</path>
		<path
			d="M719 3219 c-51 -19 -68 -122 -28 -173 l20 -26 204 0 c197 0 205 1 225 22 15 16 20 35 20 76 0 66 -11 87 -51 101 -39 13 -353 13 -390 0z">
		</path>
		<path
			d="M1394 3220 c-55 -22 -74 -122 -33 -174 l20 -26 645 0 c631 0 644 0 664 20 28 28 28 127 1 161 l-19 24 -629 2 c-345 1 -638 -2 -649 -7z">
		</path>
		<path
			d="M2969 3219 c-51 -19 -68 -122 -28 -173 l20 -26 423 0 c496 0 466 -6 466 99 0 113 30 106 -449 108 -243 1 -416 -2 -432 -8z">
		</path>
		<path
			d="M712 2830 c-45 -19 -58 -126 -21 -174 l20 -26 329 0 329 0 20 26 c39 49 24 150 -26 173 -30 14 -617 14 -651 1z">
		</path>
		<path
			d="M1633 2830 c-31 -12 -43 -41 -43 -98 0 -35 6 -57 21 -76 l20 -26 643 0 643 0 21 23 c30 31 31 124 3 158 l-19 24 -634 2 c-353 1 -643 -2 -655 -7z">
		</path>
		<path
			d="M3213 2830 c-31 -13 -43 -41 -43 -104 0 -43 5 -61 20 -76 19 -19 33 -20 320 -20 354 0 340 -4 340 103 0 105 11 102 -329 104 -157 1 -296 -2 -308 -7z">
		</path>
		<path
			d="M3263 2100 c-31 -13 -43 -41 -43 -104 0 -43 5 -61 20 -76 19 -19 33 -20 333 -20 361 0 347 -4 355 93 4 46 1 57 -21 83 l-25 29 -299 2 c-164 1 -308 -2 -320 -7z">
		</path>
		<path
			d="M2029 1691 l-29 -29 0 -194 c0 -223 10 -275 62 -325 59 -55 90 -65 193 -61 115 4 159 28 200 111 l26 54 -3 216 c-4 257 -1 252 -104 252 -101 0 -104 -6 -104 -220 0 -146 -2 -175 -16 -186 -14 -11 -18 -10 -30 6 -11 14 -14 60 -14 191 l0 173 -26 20 c-19 15 -41 21 -76 21 -41 0 -54 -5 -79 -29z">
		</path>
		<path
			d="M2658 1710 c-52 -16 -98 -52 -126 -98 -25 -44 -27 -55 -30 -189 -5 -178 9 -233 68 -287 54 -49 76 -56 171 -56 87 0 129 13 172 53 25 24 27 24 27 7 0 -11 9 -29 20 -40 19 -19 33 -20 224 -20 l205 0 20 26 c15 19 21 41 21 75 0 66 -29 99 -93 106 l-47 6 0 178 c0 111 -4 187 -11 203 -16 33 -59 50 -116 43 -80 -9 -83 -18 -83 -238 l0 -189 -34 0 c-19 0 -41 -3 -50 -6 -14 -5 -16 9 -16 121 0 154 -11 197 -65 251 -57 57 -169 81 -257 54z m112 -316 c0 -54 -4 -75 -16 -85 -14 -11 -18 -10 -30 6 -20 27 -18 134 3 164 15 23 17 23 30 6 8 -12 13 -46 13 -91z">
		</path>
		<path
			d="M3520 1697 c-75 -39 -80 -59 -80 -302 0 -192 2 -213 20 -243 40 -65 65 -72 256 -72 198 0 203 2 212 90 5 56 -13 95 -51 109 -22 9 -22 9 5 21 35 17 52 59 45 117 -8 73 -26 83 -166 85 l-116 2 122 5 c145 7 154 12 161 95 4 51 2 57 -26 86 l-30 30 -155 0 c-141 0 -157 -2 -197 -23z">
		</path>
	</g>
	<g fill="rgb(241,115,77)">
		<path
			d="M4290 3887 l-55 -502 -5 -1200 -5 -1200 -30 -53 c-40 -73 -112 -136 -183 -160 l-57 -19 -22 -199 c-29 -266 -29 -290 -1 -297 59 -14 188 -19 221 -8 43 14 102 78 111 117 3 16 98 887 211 1935 149 1391 202 1915 195 1938 -24 84 -89 125 -215 136 -44 3 -87 8 -95 11 -13 3 -23 -73 -70 -499z">
		</path>
	</g>
	<g fill="rgb(247,190,117)">
		<path
			d="M3630 4896 c0 -9 4 -24 9 -34 46 -87 51 -116 51 -311 l0 -191 45 0 c56 0 85 -25 85 -74 0 -45 -37 -76 -91 -76 l-39 0 0 -100 c0 -93 -1 -100 -20 -100 -13 0 -20 -7 -20 -20 0 -18 7 -20 65 -20 77 0 105 -20 105 -73 0 -44 -27 -68 -85 -74 l-45 -6 0 -98 c0 -92 -1 -99 -20 -99 -13 0 -20 -7 -20 -20 0 -18 7 -20 68 -20 80 0 102 -15 102 -72 0 -51 -32 -73 -112 -77 -16 -1 -18 -13 -18 -115 l0 -113 45 -6 c60 -6 85 -29 85 -78 0 -52 -26 -69 -107 -69 -56 0 -63 -2 -63 -20 0 -13 7 -20 20 -20 19 0 20 -7 20 -99 l0 -98 45 -6 c58 -6 85 -30 85 -74 0 -53 -28 -73 -105 -73 -58 0 -65 -2 -65 -20 0 -13 7 -20 20 -20 20 0 20 -7 20 -269 l0 -269 81 -4 c75 -3 83 -5 106 -32 18 -22 23 -35 18 -55 -14 -54 -29 -61 -142 -61 -96 0 -103 -1 -103 -20 0 -13 7 -20 20 -20 19 0 20 -7 20 -100 l0 -100 76 0 c71 0 77 -2 106 -30 24 -25 29 -36 24 -58 -13 -51 -38 -62 -147 -62 -92 0 -99 -1 -99 -20 0 -13 7 -20 20 -20 11 0 20 -7 20 -15 0 -12 15 -15 76 -15 41 0 84 -5 95 -11 48 -25 44 -105 -7 -128 -14 -6 -56 -11 -94 -11 l-70 0 0 -29 0 -29 81 -4 c75 -3 83 -5 106 -32 18 -22 23 -35 18 -55 -14 -54 -29 -61 -142 -61 -96 0 -103 -1 -103 -20 0 -14 7 -20 21 -20 17 0 20 -4 15 -22 -4 -13 -9 -35 -12 -50 -4 -16 -10 -28 -15 -28 -5 0 -9 -7 -9 -15 0 -8 -4 -15 -10 -15 -5 0 -10 -9 -10 -21 0 -20 3 -21 163 -17 182 4 205 10 254 75 l28 36 3 1881 c2 1818 2 1882 -16 1916 -11 19 -38 48 -61 65 -42 29 -43 29 -206 33 -148 4 -165 3 -165 -12z">
		</path>
		<path d="M4231 3733 c1 -368 3 -661 5 -653 7 27 134 1226 134 1264 0 41 -1 42 -82 50 l-58 6 1 -667z"></path>
		<path
			d="M2462 750 l-1482 -5 -18 -35 c-33 -66 -116 -61 -137 8 -9 33 -10 33 -65 30 l-55 -3 -9 -43 c-18 -88 23 -102 399 -142 160 -17 854 -91 1544 -165 689 -74 1263 -135 1275 -135 22 0 23 7 45 223 13 122 25 234 28 250 5 24 3 27 -18 25 -13 -2 -691 -5 -1507 -8z">
		</path>
	</g>
	<g fill="rgb(254,234,187)">
		<path
			d="M583 4900 c-67 -16 -115 -61 -133 -125 -8 -29 -10 -563 -8 -1896 l3 -1855 27 -41 c25 -37 78 -73 110 -73 10 0 49 130 138 463 167 626 157 594 206 643 124 125 344 32 344 -145 0 -14 -56 -235 -125 -491 -69 -257 -125 -470 -125 -474 0 -8 2623 -8 2644 0 9 3 16 10 16 16 0 5 7 16 15 25 8 8 13 19 10 24 -4 5 -1 9 5 9 7 0 10 7 6 15 -3 8 -1 15 4 15 5 0 8 21 7 47 l-2 48 -75 3 c-86 4 -123 21 -157 72 -22 31 -23 43 -23 214 0 158 2 186 19 216 27 50 89 80 167 80 l63 0 3 118 3 119 -215 2 c-118 1 -222 7 -232 12 -23 12 -33 55 -22 88 16 46 43 51 261 51 l202 0 3 288 3 289 -239 2 c-132 1 -248 7 -258 12 -23 12 -33 55 -22 88 17 46 41 51 286 51 l227 0 3 119 3 119 -365 1 -365 1 -22 26 c-13 14 -23 31 -23 39 0 30 24 65 53 75 19 6 159 10 373 10 l344 0 0 115 0 114 -479 3 c-455 3 -480 4 -500 22 -27 25 -28 79 -1 106 19 19 34 20 483 22 254 0 469 1 477 2 12 1 16 22 18 118 l3 117 -242 3 c-239 3 -241 3 -260 27 -25 30 -24 76 1 101 19 19 34 20 243 22 122 0 229 1 237 2 12 1 16 22 18 118 l3 117 -367 3 -366 3 -19 24 c-25 30 -24 62 2 95 l20 26 364 0 364 0 3 208 c2 114 0 208 -4 210 -4 2 -4 10 -1 18 3 8 0 14 -7 14 -6 0 -8 5 -5 10 3 6 1 10 -5 10 -6 0 -8 5 -5 10 3 6 1 10 -5 10 -6 0 -9 4 -6 8 3 5 -2 18 -10 30 l-15 22 -1522 -1 c-837 -1 -1537 -4 -1554 -9z m647 -560 c30 -30 27 -83 -7 -110 -26 -20 -35 -21 -256 -18 -227 3 -229 3 -248 27 -25 30 -24 62 2 95 l20 26 235 0 c221 0 235 -1 254 -20z m1428 0 c32 -30 30 -82 -4 -109 -26 -21 -36 -21 -564 -21 -528 0 -538 0 -564 21 -33 26 -36 79 -6 109 20 20 33 20 568 20 538 0 549 0 570 -20z m-1299 -396 c24 -30 26 -43 10 -77 -20 -44 -44 -47 -330 -47 -291 0 -320 5 -333 52 -9 36 -8 43 15 72 l20 26 299 0 299 0 20 -26z m1548 4 c28 -26 30 -67 4 -99 l-19 -24 -594 -3 c-326 -1 -603 0 -616 3 -59 14 -80 79 -40 122 l21 23 611 0 610 0 23 -22z m-1282 -388 c25 -28 23 -76 -4 -103 -21 -22 -25 -22 -424 -25 -435 -3 -471 0 -487 44 -14 36 -13 48 11 78 l20 26 433 0 c421 0 433 -1 451 -20z m804 -6 c26 -34 27 -64 1 -92 -29 -30 -62 -34 -294 -30 -204 3 -208 3 -227 27 -25 30 -24 76 1 101 19 19 33 20 259 20 l240 0 20 -26z m-1350 -365 c53 -19 68 -77 31 -117 -20 -21 -29 -22 -195 -22 l-174 0 -20 26 c-12 15 -21 33 -21 40 0 28 24 64 49 73 37 13 291 13 330 0z m1582 -18 c25 -30 24 -76 -1 -101 -20 -20 -33 -20 -634 -20 l-615 0 -20 26 c-12 15 -21 34 -21 43 0 23 28 61 54 71 11 5 290 8 619 7 l599 -2 19 -24z m-1328 -372 c24 -11 47 -47 47 -73 0 -7 -9 -25 -21 -40 l-21 -26 -300 2 -301 3 -20 27 c-17 22 -18 33 -11 60 6 19 20 38 34 45 33 17 557 18 593 2z m1578 -18 c25 -31 24 -69 -3 -98 l-21 -23 -613 0 -613 0 -20 26 c-33 42 -23 96 22 114 12 5 289 8 625 7 l604 -2 19 -24z m-757 -1112 l26 -20 0 -173 c0 -139 3 -176 16 -194 18 -26 60 -29 86 -5 16 14 18 34 18 188 0 154 2 175 19 196 23 28 83 32 109 6 15 -15 17 -43 20 -203 3 -184 3 -187 -23 -241 -36 -73 -86 -106 -170 -111 -70 -5 -109 10 -163 61 -50 48 -62 104 -62 295 l0 164 29 29 c35 34 59 36 95 8z m644 9 c58 -14 122 -76 140 -134 6 -23 12 -93 12 -156 0 -102 -3 -119 -25 -165 -33 -65 -88 -104 -155 -111 -75 -7 -113 4 -164 49 -63 56 -79 113 -75 263 4 99 7 116 31 158 28 46 74 82 126 98 39 12 57 12 110 -2z m415 1 c41 -19 47 -48 47 -238 l0 -178 47 -6 c35 -4 53 -12 70 -32 28 -32 29 -55 2 -89 l-20 -26 -175 0 c-161 0 -176 2 -194 20 -25 25 -26 71 -2 100 13 16 32 24 70 28 l52 5 0 184 c0 192 5 217 43 233 30 12 32 12 60 -1z">
		</path>
		<path
			d="M2705 1515 c-23 -22 -25 -32 -25 -117 0 -107 13 -138 59 -138 50 0 61 25 61 138 0 89 -3 105 -20 122 -26 26 -46 25 -75 -5z">
		</path>
		<path
			d="M1043 1919 c-26 -9 -13 32 -168 -549 -64 -239 -119 -443 -121 -453 -5 -16 0 -18 52 -15 l57 3 129 480 c94 349 127 487 121 504 -10 28 -40 42 -70 30z">
		</path>
		<path d="M3620 1505 l0 -35 49 0 c48 0 49 1 53 33 l3 32 -52 3 -53 2 0 -35z"></path>
		<path d="M3620 1290 c0 -29 1 -30 50 -30 49 0 50 1 50 30 0 29 -1 30 -50 30 -49 0 -50 -1 -50 -30z"></path>
	</g>
</svg>
